<svg width="128" height="128" viewBox="0 0 128 128" fill="none" xmlns="http://www.w3.org/2000/svg">
<g clip-path="url(#clip0_1_84)">
<path d="M117.067 48C115.746 34.8435 109.585 22.6465 99.7796 13.7759C89.9739 4.90521 77.2227 -0.00665283 64 -0.00665283C50.7773 -0.00665283 38.0261 4.90521 28.2204 13.7759C18.4148 22.6465 12.2539 34.8435 10.9333 48H12.256L34.4533 80.0854L38.8427 77.0454L18.7413 48H31.3387C31.3387 46.2319 32.041 44.5362 33.2913 43.286C34.5415 42.0357 36.2372 41.3334 38.0053 41.3334C39.7734 41.3334 41.4691 42.0357 42.7194 43.286C43.9696 44.5362 44.672 46.2319 44.672 48H46.9227L53.5733 69.3334L58.6667 67.744L52.5067 48H57.3387C57.3387 46.2319 58.041 44.5362 59.2913 43.286C60.5415 42.0357 62.2372 41.3334 64.0053 41.3334C65.7734 41.3334 67.4691 42.0357 68.7194 43.286C69.9696 44.5362 70.672 46.2319 70.672 48H75.4933L69.3333 67.744L74.4267 69.3334L81.0773 48H83.3387C83.3387 47.1245 83.5111 46.2576 83.8461 45.4488C84.1812 44.64 84.6722 43.905 85.2913 43.286C85.9103 42.6669 86.6453 42.1759 87.4541 41.8408C88.2629 41.5058 89.1298 41.3334 90.0053 41.3334C90.8808 41.3334 91.7477 41.5058 92.5565 41.8408C93.3654 42.1759 94.1003 42.6669 94.7194 43.286C95.3384 43.905 95.8295 44.64 96.1645 45.4488C96.4995 46.2576 96.672 47.1245 96.672 48H109.168L89.0667 77.0507L93.4507 80.0854L115.653 48H117.067ZM90.0053 30.6667C87.5353 30.6745 85.0958 31.2133 82.8524 32.2467C80.6089 33.2801 78.6139 34.7839 77.0027 36.656C75.3974 34.7781 73.4044 33.2704 71.1606 32.2366C68.9169 31.2028 66.4758 30.6674 64.0053 30.6674C61.5349 30.6674 59.0937 31.2028 56.85 32.2366C54.6063 33.2704 52.6132 34.7781 51.008 36.656C49.3641 34.7323 47.3139 33.1972 45.0051 32.1616C42.6963 31.1259 40.1864 30.6155 37.6565 30.667C35.1266 30.7185 32.6396 31.3308 30.3749 32.4596C28.1102 33.5884 26.1242 35.2056 24.56 37.1947C27.7512 29.3551 33.2064 22.6444 40.2291 17.9195C47.2518 13.1945 55.5233 10.6697 63.9875 10.6675C72.4517 10.6652 80.7246 13.1855 87.7498 17.9066C94.7751 22.6278 100.234 29.3355 103.429 37.1734C101.822 35.1523 99.7815 33.5183 97.4579 32.3921C95.1344 31.2659 92.5874 30.6762 90.0053 30.6667Z" fill="black"/>
<path d="M58.6667 82.16L51.1253 74.6667L31.8293 93.84L24.288 101.333L51.1253 128L58.6667 120.507L39.3707 101.333L58.6667 82.16ZM69.4453 120.507L76.9867 128L96.2827 108.827L103.824 101.333L76.9867 74.6667L69.4453 82.16L88.7413 101.333L69.4453 120.507Z" fill="black"/>
</g>
<defs>
<clipPath id="clip0_1_84">
<rect width="128" height="128" fill="white"/>
</clipPath>
</defs>
</svg>
