<svg width="128" height="128" viewBox="0 0 128 128" fill="none" xmlns="http://www.w3.org/2000/svg">
<path d="M17.0667 75.8507V21.3334C17.0667 18.5044 18.1905 15.7913 20.1909 13.7909C22.1912 11.7905 24.9044 10.6667 27.7333 10.6667H100.267C103.096 10.6667 105.809 11.7905 107.809 13.7909C109.81 15.7913 110.933 18.5044 110.933 21.3334V75.8507M17.0667 75.8507H110.933M17.0667 75.8507L9.17333 103.765C8.72502 105.351 8.65036 107.02 8.95519 108.639C9.26002 110.259 9.93606 111.786 10.9302 113.101C11.9244 114.415 13.2097 115.482 14.6853 116.216C16.1608 116.95 17.7865 117.333 19.4347 117.333H108.565C110.214 117.333 111.839 116.95 113.315 116.216C114.79 115.482 116.076 114.415 117.07 113.101C118.064 111.786 118.74 110.259 119.045 108.639C119.35 107.02 119.275 105.351 118.827 103.765L110.933 75.8507" stroke="black" stroke-width="5.5"/>
<path d="M58.6667 101.333H69.3333M74.6667 32L85.3333 42.6667L74.6667 53.3333M53.3333 32L42.6667 42.6667L53.3333 53.3333" stroke="black" stroke-width="5.5" stroke-linecap="round" stroke-linejoin="round"/>
</svg>
