<svg width="128" height="128" viewBox="0 0 128 128" fill="none" xmlns="http://www.w3.org/2000/svg">
<path d="M36.3627 117.333V102.096C34.7733 86.2187 16 77.7174 16 53.3334C16 28.96 30.544 10.368 59.6373 10.6667C80.5813 10.8907 100.363 22.8587 100.363 47.2427L112 65.5254C112 77.7174 100.363 77.7174 100.363 77.7174C100.363 77.7174 103.275 108.192 77.088 108.192V117.333" stroke="black" stroke-width="5.5" stroke-linecap="round" stroke-linejoin="round"/>
<path d="M58.6667 64C61.4956 64 64.2087 62.8762 66.2091 60.8758C68.2095 58.8754 69.3333 56.1623 69.3333 53.3334C69.3333 50.5044 68.2095 47.7913 66.2091 45.7909C64.2087 43.7905 61.4956 42.6667 58.6667 42.6667C55.8377 42.6667 53.1246 43.7905 51.1242 45.7909C49.1238 47.7913 48 50.5044 48 53.3334C48 56.1623 49.1238 58.8754 51.1242 60.8758C53.1246 62.8762 55.8377 64 58.6667 64Z" stroke="black" stroke-width="5.5" stroke-linecap="round" stroke-linejoin="round"/>
<path d="M58.6667 69.3334C62.9101 69.3334 66.9798 67.6477 69.9804 64.6471C72.9809 61.6465 74.6667 57.5768 74.6667 53.3334C74.6667 49.0899 72.9809 45.0202 69.9804 42.0197C66.9798 39.0191 62.9101 37.3334 58.6667 37.3334C54.4232 37.3334 50.3535 39.0191 47.3529 42.0197C44.3524 45.0202 42.6667 49.0899 42.6667 53.3334C42.6667 57.5768 44.3524 61.6465 47.3529 64.6471C50.3535 67.6477 54.4232 69.3334 58.6667 69.3334Z" stroke="black" stroke-width="5.5" stroke-linecap="round" stroke-linejoin="round"/>
</svg>
